<svg xmlns="http://www.w3.org/2000/svg" xmlns:xlink="http://www.w3.org/1999/xlink" width="255.762" height="504.022" viewBox="0 0 255.762 504.022">
  <defs>
    <linearGradient id="linear-gradient" x1="146.593" y1="1" x2="146.593" gradientUnits="objectBoundingBox">
      <stop offset="0" stop-color="gray" stop-opacity="0.251"/>
      <stop offset="0.535" stop-color="gray" stop-opacity="0.122"/>
      <stop offset="1" stop-color="gray" stop-opacity="0.102"/>
    </linearGradient>
  </defs>
  <g id="Group_633" data-name="Group 633" transform="translate(-424.358 -469.686)">
    <ellipse id="Ellipse_16" data-name="Ellipse 16" cx="119.887" cy="19.101" rx="119.887" ry="19.101" transform="translate(424.858 935.005)" fill="rgba(85,85,85,0.44)" stroke="#b4b4b4" stroke-miterlimit="10" stroke-width="1"/>
    <g id="Group_632" data-name="Group 632" transform="translate(-441 -31)">
      <path id="Path_71" data-name="Path 71" d="M276.4,797.987a.464.464,0,0,0-.1.05c1.19-2.57,2.3-5.17,3.31-7.81.12-.31.23-.63.35-.94-.01.08-.01.16-.02.25-.03.5-.07,1-.11,1.51-.06.79-.11,1.59-.12,2.39-.01.25-.01.49-.01.74a14.63,14.63,0,0,0,.3,2.9h-.04c-.25.02-.48.03-.72.07a9.785,9.785,0,0,0-2.73.78.59.59,0,0,0-.11.06Z" transform="translate(703 168.133)" fill="url(#linear-gradient)"/>
      <path id="Path_72" data-name="Path 72" d="M295.335,405.208c.107,4.176,1.522,8.221,1.744,12.39-12.3.612-24.427-5.354-36.6-3.526,3.4-2.2,5.224-6.172,6.294-10.08a41.8,41.8,0,0,0,1.2-15.487,6.819,6.819,0,0,0-.153-.857c-.451-2.042-1.621-4.933-1.308-6.539.413-2.126,2.417-1.705,4.222-1.583a158.145,158.145,0,0,1,16.412,2.118c1.415.245,15.2,3.686,15.4,3.327a64.859,64.859,0,0,0-5.965,12.29A23.959,23.959,0,0,0,295.335,405.208Z" transform="translate(703 168.133)" fill="#a0616a"/>
      <path id="Path_73" data-name="Path 73" d="M416.952,392.306a17.977,17.977,0,0,1-3.755,3.786c-.933.765-1.889,1.545-2.891,2.248a12.4,12.4,0,0,1-6.149,2.5c-2.929.2-9.147-1.522-10.967-4.03a7.271,7.271,0,0,1-1.048-4.2,19.316,19.316,0,0,1,1.009-5.874,32.736,32.736,0,0,1,4.742-8.581c2.118-2.944,4.474-5.843,7.625-7.625a29.579,29.579,0,0,1,3.243-1.491c1.912-.78,3.816-1.568,5.728-2.348a2.765,2.765,0,0,1,1.04-.275c1.537.015,1.82,2.363.948,3.633-1.744,2.554-5.667,3.266-6.768,6.164a4.394,4.394,0,0,1,4.084,3.166,2.238,2.238,0,0,0,.551,1.277c.5.405,1.293.176,1.866.482,1.017.543.574,2.057.681,3.2a14.994,14.994,0,0,0,1.048,2.883,6.126,6.126,0,0,1-.987,5.078Z" transform="translate(703 168.133)" fill="#a0616a"/>
      <path id="Path_74" data-name="Path 74" d="M247.432,810.977c.947-.946,2.493-.785,3.815-.576a141.534,141.534,0,0,0,21.451,1.735c.9-4.392-1.711-8.661-2.553-13.064a11.785,11.785,0,0,0-.85-3.3c-1.012-1.941-3.294-2.829-5.435-3.281-3.866-.815-9.908-2.254-12.067,1.654C249.2,798.831,248.374,805.758,247.432,810.977Z" transform="translate(703 168.133)" fill="#65617d"/>
      <path id="Path_75" data-name="Path 75" d="M326.026,794.387c-2.914,1.988-6.531,2.608-10.034,3.059s-7.113.788-10.286,2.348c-2.738,1.354-5.048,3.572-7.946,4.543a16.555,16.555,0,0,1-8.252.13c-3.258-.612-6.73-1.8-8.489-4.612-1.568-2.5-1.4-5.675-1.185-8.619q.379-4.99.742-10a4.76,4.76,0,0,1,.62-2.417c2.355-3.434,8.084,1.438,11.151,1.43,4.856-.008,10.072-2.639,13.575-5.858a4.121,4.121,0,0,1,1.055-.8c1.384-.62,2.769.528,4,1.53.138.115.275.229.413.336,2.837,2.248,6.646,2.707,10.149,3.617s7.266,2.746,8.351,6.2a5.282,5.282,0,0,1,.168.665C330.691,789.133,328.756,792.521,326.026,794.387Z" transform="translate(703 168.133)" fill="#3f3d56"/>
      <path id="Path_76" data-name="Path 76" d="M326.026,794.387c-2.914,1.988-6.531,2.608-10.034,3.059s-7.113.788-10.286,2.348c-2.738,1.354-5.048,3.572-7.946,4.543a16.555,16.555,0,0,1-8.252.13c-3.258-.612-6.73-1.8-8.489-4.612-1.568-2.5-1.4-5.675-1.185-8.619q.379-4.99.742-10a4.76,4.76,0,0,1,.62-2.417c2.355-3.434,8.084,1.438,11.151,1.43,4.856-.008,10.072-2.639,13.575-5.858a4.121,4.121,0,0,1,1.055-.8c1.384-.62,2.769.528,4,1.53.138.115.275.229.413.336,2.837,2.248,6.646,2.707,10.149,3.617s7.266,2.746,8.351,6.2a5.282,5.282,0,0,1,.168.665C330.691,789.133,328.756,792.521,326.026,794.387Z" transform="translate(703 168.133)" fill="#2f2e41"/>
      <path id="Path_77" data-name="Path 77" d="M326.026,795.506c-2.914,1.988-6.531,2.608-10.034,3.059s-7.113.788-10.286,2.348c-2.738,1.354-5.048,3.572-7.946,4.543a16.556,16.556,0,0,1-8.252.13,13.624,13.624,0,0,1-8.489-5.731c-1.568-2.5-1.4-5.675-1.185-8.619q.379-4.99.742-10a4.76,4.76,0,0,1,.62-2.417c2.355-3.434,8.084,1.438,11.151,1.43,4.856-.008,10.072-2.639,13.575-5.858a4.121,4.121,0,0,1,1.055-.8c1.384-.62,2.769.528,4,1.53a28.73,28.73,0,0,1-3.411,7.051,14.675,14.675,0,0,1-10.7,6.692c-2.172.161-4.4-.268-6.5.291s-4.053,2.707-3.312,4.749c.727,1.988,3.3,2.424,5.415,2.539,2.967.161,6.011.306,8.826-.62,1.721-.574,3.3-1.522,4.971-2.218,7.12-2.952,16.114-1.3,22-6.287a13.02,13.02,0,0,1,1.8-1.377C331.6,789.175,328.756,793.64,326.026,795.506Z" transform="translate(703 168.133)" fill="#e8eaf2"/>
      <path id="Path_78" data-name="Path 78" d="M326.026,795.506c-2.914,1.988-6.531,2.608-10.034,3.059s-7.113.788-10.286,2.348c-2.738,1.354-5.048,3.572-7.946,4.543a16.556,16.556,0,0,1-8.252.13,13.624,13.624,0,0,1-8.489-5.731c-1.568-2.5-1.4-5.675-1.185-8.619q.379-4.99.742-10a4.76,4.76,0,0,1,.62-2.417c2.355-3.434,8.084,1.438,11.151,1.43,4.856-.008,10.072-2.639,13.575-5.858a4.121,4.121,0,0,1,1.055-.8c1.384-.62,2.769.528,4,1.53a28.73,28.73,0,0,1-3.411,7.051,14.675,14.675,0,0,1-10.7,6.692c-2.172.161-4.4-.268-6.5.291s-4.053,2.707-3.312,4.749c.727,1.988,3.3,2.424,5.415,2.539,2.967.161,6.011.306,8.826-.62,1.721-.574,3.3-1.522,4.971-2.218,7.12-2.952,16.114-1.3,22-6.287a13.02,13.02,0,0,1,1.8-1.377C331.6,789.175,328.756,793.64,326.026,795.506Z" transform="translate(703 168.133)" opacity="0.05"/>
      <path id="Path_79" data-name="Path 79" d="M248.764,577.622a43.783,43.783,0,0,0,6,32.306c1.668,2.585,3.623,5.012,4.877,7.821a35.546,35.546,0,0,1,1.9,6.2l5.405,22.373c1.459,6.04,2.929,12.2,2.491,18.4-.305,4.319-1.394,9.175,1.268,12.59a9.278,9.278,0,0,1,1.608,2.206,5.585,5.585,0,0,1,.026,2.907c-2.735,16.244-4.763,33.226.177,48.94,4.477,14.243,4.733,30.024,8.539,44.461.471,1.788,1.01,3.672,2.365,4.931a7.752,7.752,0,0,0,3.545,1.685c5.61,1.335,11.534-.229,16.766-2.653,3.677-1.7,7.635-4.692,7.321-8.732-.149-1.922-1.272-3.607-2.034-5.378-1.495-3.473-1.615-7.353-2.018-11.113-1.013-9.44-3.923-18.555-6.123-27.792s-3.694-18.887-1.834-28.2a246.667,246.667,0,0,1,18.141-55.808,6.731,6.731,0,0,1,1.662-2.5,17.176,17.176,0,0,0,2.352-1.605,7.1,7.1,0,0,0,1.076-2.926c.818-2.947,3.249-5.121,4.878-7.709,4.114-6.535,2.81-14.912,2.658-22.633-.148-7.508.933-15.085-.3-22.493s-5.475-14.98-12.616-17.3c-3.538-1.15-7.362-.889-11.064-.523C286.225,567.014,267.169,570.577,248.764,577.622Z" transform="translate(703 168.133)" fill="#2f2e41"/>
      <path id="Path_80" data-name="Path 80" d="M248.764,577.622a43.783,43.783,0,0,0,6,32.306c1.668,2.585,3.623,5.012,4.877,7.821a35.546,35.546,0,0,1,1.9,6.2l5.405,22.373c1.459,6.04,2.929,12.2,2.491,18.4-.305,4.319-1.394,9.175,1.268,12.59a9.278,9.278,0,0,1,1.608,2.206,5.585,5.585,0,0,1,.026,2.907c-2.735,16.244-4.763,33.226.177,48.94,4.477,14.243,4.733,30.024,8.539,44.461.471,1.788,1.01,3.672,2.365,4.931a7.752,7.752,0,0,0,3.545,1.685c5.61,1.335,11.534-.229,16.766-2.653,3.677-1.7,7.635-4.692,7.321-8.732-.149-1.922-1.272-3.607-2.034-5.378-1.495-3.473-1.615-7.353-2.018-11.113-1.013-9.44-3.923-18.555-6.123-27.792s-3.694-18.887-1.834-28.2a246.667,246.667,0,0,1,18.141-55.808,6.731,6.731,0,0,1,1.662-2.5,17.176,17.176,0,0,0,2.352-1.605,7.1,7.1,0,0,0,1.076-2.926c.818-2.947,3.249-5.121,4.878-7.709,4.114-6.535,2.81-14.912,2.658-22.633-.148-7.508.933-15.085-.3-22.493s-5.475-14.98-12.616-17.3c-3.538-1.15-7.362-.889-11.064-.523C286.225,567.014,267.169,570.577,248.764,577.622Z" transform="translate(703 168.133)" opacity="0.1"/>
      <path id="Path_81" data-name="Path 81" d="M328.642,624.711a46.894,46.894,0,0,1-.987,8.68q-5.185,29.081-11.051,58.04c-.344,1.675-.681,3.35-1.132,4.994a40.5,40.5,0,0,1-7.487,14.73c-16.3,20.313-17.705,49.811-26.546,74.307-.6,1.66-1.193,3.319-1.828,4.956a123.776,123.776,0,0,1-5.453,12.168,3.478,3.478,0,0,1-1.124,1.453,3.334,3.334,0,0,1-1.774.344,51.794,51.794,0,0,1-22.967-5.224,4.756,4.756,0,0,1-2.44-2.027,4.9,4.9,0,0,1-.26-2.333c.245-4.856.543-9.889,2.86-14.156a30.206,30.206,0,0,1,5.659-6.86c.688-15.242,2.2-30.515,5.545-45.4,1.721-7.61,3.847-15.3,8.267-21.735,3.258-4.749,7.931-9.438,7.357-15.166-.252-2.516-1.308-5.652.742-7.128.895-.65,2.218-.734,2.822-1.66a3.148,3.148,0,0,0,.4-1.422,35.123,35.123,0,0,0-.727-11.755,62,62,0,0,1-1.751-7.663c-.26-2.616.184-5.445,1.927-7.4.107-5.231-.038-10.661.069-15.885a29.458,29.458,0,0,0-.734-8.872c-.4-1.369-1-2.677-1.308-4.076-1.094-5.025,1.637-11.044-1.614-15.028-1.354-1.652-3.442-2.478-5.216-3.671-3.541-2.363-5.866-6.233-7.159-10.294a56.815,56.815,0,0,1-2.027-12.6,12.973,12.973,0,0,1-.031-2.723,4.99,4.99,0,0,1,.367-1.361c1.01-2.271,3.725-3.151,6.141-3.732a198.873,198.873,0,0,1,46.9-5.484c5.843-3.977,9.132-2.554,11.609,1.66a43.551,43.551,0,0,1,3.3,8.068c1.132,3.419,1.2,22.554,2.3,25.988C332.725,610.906,328.588,620.022,328.642,624.711Z" transform="translate(703 168.133)" fill="#2f2e41"/>
      <path id="Path_82" data-name="Path 82" d="M223,450.581c-.434,3.011,1.013,5.97,1.174,9.007.14,2.654-.705,5.246-1.188,7.86-1.886,10.2,1.738,20.531,5.426,30.226a15.576,15.576,0,0,1,1.288,4.971c.1,3.164-1.724,6.064-2.223,9.19-1.049,6.569,3.8,12.749,3.9,19.4.046,3.063-.918,6.18-.152,9.145.511,1.979,1.747,3.68,2.623,5.526,1.553,3.272,1.97,6.984,3.453,10.289,2.679,5.972,8.436,9.871,13.914,13.454,3.117-1.039,6.486-2.273,8.2-5.077a12.579,12.579,0,0,0,1.431-4.452c1.184-6.8,1.143-13.753,1.1-20.658a127.38,127.38,0,0,0-.945-17.782c-1.107-7.5-3.541-14.737-5.287-22.117-2.2-9.308-3.331-18.925-6.762-27.853-3.015-7.846-7.71-14.889-12.653-21.635-1.886-2.574-3.375-6.253-7.035-5.659A7.674,7.674,0,0,0,223,450.581Z" transform="translate(703 168.133)" fill="#3f3d56"/>
      <path id="Path_83" data-name="Path 83" d="M223,450.581c-.434,3.011,1.013,5.97,1.174,9.007.14,2.654-.705,5.246-1.188,7.86-1.886,10.2,1.738,20.531,5.426,30.226a15.576,15.576,0,0,1,1.288,4.971c.1,3.164-1.724,6.064-2.223,9.19-1.049,6.569,3.8,12.749,3.9,19.4.046,3.063-.918,6.18-.152,9.145.511,1.979,1.747,3.68,2.623,5.526,1.553,3.272,1.97,6.984,3.453,10.289,2.679,5.972,8.436,9.871,13.914,13.454,3.117-1.039,6.486-2.273,8.2-5.077a12.579,12.579,0,0,0,1.431-4.452c1.184-6.8,1.143-13.753,1.1-20.658a127.38,127.38,0,0,0-.945-17.782c-1.107-7.5-3.541-14.737-5.287-22.117-2.2-9.308-3.331-18.925-6.762-27.853-3.015-7.846-7.71-14.889-12.653-21.635-1.886-2.574-3.375-6.253-7.035-5.659A7.674,7.674,0,0,0,223,450.581Z" transform="translate(703 168.133)" fill="#de1a1a" opacity="0.05"/>
      <circle id="Ellipse_15" data-name="Ellipse 15" cx="28.4" cy="28.4" r="28.4" transform="translate(964.409 508.645)" fill="#a0616a"/>
      <path id="Path_84" data-name="Path 84" d="M306.335,415.4c-1.238,1.433-2.9,3.011-4.736,2.549a6.471,6.471,0,0,1-1.843-.986c-3.274-2.11-7.292-2.605-11.144-3.185a164.421,164.421,0,0,1-22.949-5.159,23.409,23.409,0,0,0-6.788-1.38c-4.813.025-9.079,3.224-12.1,6.976s-5.153,8.14-8.113,11.936c-2.109,2.7-4.62,5.088-6.59,7.9-4.972,7.088-6.041,16.336-4.757,24.9s4.7,16.636,8.095,24.6a85.493,85.493,0,0,0,6.609,13.326c-1.144,6.506-.54,13.946,2.554,19.782,1.008,1.9,2.242,3.754,2.575,5.88a14.716,14.716,0,0,1-.178,4.312l-1.445,10.282c-.44,3.131-.88,6.263-1.45,9.372-1.043,5.692-2.459,11.869.177,17.02,3.157,6.169-.159,14.074.671,20.954A105.407,105.407,0,0,1,272.6,577.9c6.1-.6,12.32-.674,18.208-2.387,3.677-1.07,7.164-2.764,10.9-3.617a50.237,50.237,0,0,1,9.189-.938c6.805-.275,13.659-.547,20.4.456.546.081,1.21.125,1.536-.319a1.437,1.437,0,0,0,.2-.8,13.58,13.58,0,0,0-1.741-7.23c-.859-1.516-2.052-3-2.019-4.74a7.2,7.2,0,0,1,.59-2.354l2.985-7.96c2.52-6.72,1.321-14.526,2.629-21.582a126.711,126.711,0,0,0,1.962-16.7c.242-4.789.092-9.974-2.8-13.8a15.864,15.864,0,0,1-2.183-3.036,9.216,9.216,0,0,1-.52-3.631q-.1-14.374.789-28.731c-2.52-4.525-5.147-9.154-7.666-13.679-2.932-5.267-5.906-10.642-7.09-16.552-.784-3.912-.756-7.941-1.317-11.892a5.193,5.193,0,0,0-1-2.777c-.962-1.09-2.589-1.246-4.043-1.2a17.9,17.9,0,0,0-5.268.969Z" transform="translate(703 168.133)" fill="#823295"/>
      <path id="Path_85" data-name="Path 85" d="M315.821,459.759c1.729,2.155,3.53,4.371,5.982,5.644,2.821,1.464,6.144,1.5,9.322,1.43a222.761,222.761,0,0,0,38.956-4.279,24.33,24.33,0,0,0,4.29-1.15,22.593,22.593,0,0,0,4.336-2.7c4.225-3.038,8.51-6.132,11.723-10.226a34.379,34.379,0,0,0,6.949-17.043c3.056-2.816,4.679-6.818,6.209-10.681A16.311,16.311,0,0,0,405,415.562c.082-1.837-1.135-3.763-.8-5.571a14.722,14.722,0,0,1,4.506-8.106,2.956,2.956,0,0,0,1.072-1.424,2.3,2.3,0,0,0-.255-1.388c-1.308-2.913-4.3-4.791-7.4-5.554a31.753,31.753,0,0,0-9.532-.378,22.277,22.277,0,0,0-3.122.829l-2.221,5.848a7.565,7.565,0,0,1-1.451,2.668,13.62,13.62,0,0,1-1.577,1.233A9.019,9.019,0,0,0,381.1,411.6a8.469,8.469,0,0,0-5.008,10.455,9.981,9.981,0,0,0-7.323,6.447,4.821,4.821,0,0,1-.956,2.007,3.894,3.894,0,0,1-2.557.786c-2.51.155-4.7,2.132-6.978,1.059a14.187,14.187,0,0,0-8.288-1.158,6.239,6.239,0,0,1-1.769.157,4.671,4.671,0,0,1-1.45-.505,11.608,11.608,0,0,0-3.29-1.294,3.08,3.08,0,0,0-3.121,1.206c-.8-.873-1.271-1.992-2-2.925a3.2,3.2,0,0,0-3.028-1.445c.756-.674-.018-2.014-1-2.259a12.815,12.815,0,0,0-3.021.109c-2.627-.014-4.642-2.4-7.193-3.023-2.345-.574-5.471.11-6.673-1.983-.426-.742-.51-1.749-1.235-2.2a2.383,2.383,0,0,0-1.584-.184,15.487,15.487,0,0,0-4.792,1.454c-2.459,9.619-1.169,19.609.7,29.359a25.9,25.9,0,0,0,5.278,12.1Z" transform="translate(703 168.133)" fill="#823295"/>
      <path id="Path_86" data-name="Path 86" d="M301.541,408.275c-3.047-1.9-6.634-2.7-10.164-3.346a21.414,21.414,0,0,0-6.467-.465c-2,.25-3.918,1.021-5.93,1.133-2.823.157-5.53-.988-8.258-1.734s-5.878-1.032-8.174.619a3.53,3.53,0,0,1-1.779.945,3.113,3.113,0,0,1-1.839-.9,10.478,10.478,0,0,0-13.059.688c-5.207,4.882-4.618,14.422-10.72,18.125-1.682,1.021-3.832,1.561-4.814,3.266a12.063,12.063,0,0,1-.83,1.57,4.253,4.253,0,0,1-1.467,1.045,28.509,28.509,0,0,0-5.03,2.892,7.194,7.194,0,0,0-2.9,4.853,9.143,9.143,0,0,0,.889,4.081,38.294,38.294,0,0,0,37.214,23.8,5.89,5.89,0,0,0,3.9-1.217,7.357,7.357,0,0,0,1.366-2.251c2.869-6.015,8.257-10.456,11.678-16.174,2.039-3.408,3.348-7.221,5.471-10.578,3.218-5.089,8.111-8.848,12.9-12.5,2.7-2.057,5.708-4.216,9.1-4.072,3.024.129,5.224.291,4.115-3.418a11.883,11.883,0,0,0-5.208-6.361Z" transform="translate(703 168.133)" fill="#3f3d56"/>
      <path id="Path_87" data-name="Path 87" d="M301.541,408.275c-3.047-1.9-6.634-2.7-10.164-3.346a21.414,21.414,0,0,0-6.467-.465c-2,.25-3.918,1.021-5.93,1.133-2.823.157-5.53-.988-8.258-1.734s-5.878-1.032-8.174.619a3.53,3.53,0,0,1-1.779.945,3.113,3.113,0,0,1-1.839-.9,10.478,10.478,0,0,0-13.059.688c-5.207,4.882-4.618,14.422-10.72,18.125-1.682,1.021-3.832,1.561-4.814,3.266a12.063,12.063,0,0,1-.83,1.57,4.253,4.253,0,0,1-1.467,1.045,28.509,28.509,0,0,0-5.03,2.892,7.194,7.194,0,0,0-2.9,4.853,9.143,9.143,0,0,0,.889,4.081,38.294,38.294,0,0,0,37.214,23.8,5.89,5.89,0,0,0,3.9-1.217,7.357,7.357,0,0,0,1.366-2.251c2.869-6.015,8.257-10.456,11.678-16.174,2.039-3.408,3.348-7.221,5.471-10.578,3.218-5.089,8.111-8.848,12.9-12.5,2.7-2.057,5.708-4.216,9.1-4.072,3.024.129,5.224.291,4.115-3.418a11.883,11.883,0,0,0-5.208-6.361Z" transform="translate(703 168.133)" fill="#de1a1a" opacity="0.05"/>
      <path id="Path_88" data-name="Path 88" d="M316.321,819.885c-2.057,1.92-4.887,2.761-7.633,3.357a137.578,137.578,0,0,1-19,2.348c-2.065.153-4.137.314-6.2.474-6.057.459-12.122.925-18.2.948a125.528,125.528,0,0,1-22.385-1.935,1.9,1.9,0,0,1-2.042-2.271,108.446,108.446,0,0,1,2.753-22.47c.7-3.029,6.134,3.763,6.378,4.046,1.507,1.713,2.646,2.5,4.933,2.623,6.248.344,13.246-3.457,18.21-6.837a23.3,23.3,0,0,1,3.373-2.088,9.926,9.926,0,0,1,2.73-.78,16.485,16.485,0,0,1,9.292,1.881c3.732,1.851,7.006,4.512,10.7,6.417a30.076,30.076,0,0,0,9.59,3.036c3.38.466,7.418.688,9.155,3.617a.028.028,0,0,1,.008.023C319.4,814.7,318.37,817.973,316.321,819.885Z" transform="translate(703 168.133)" fill="#2f2e41"/>
      <path id="Path_89" data-name="Path 89" d="M316.321,821c-2.057,1.92-4.887,2.761-7.633,3.357a137.568,137.568,0,0,1-19,2.348c-2.065.153-4.137.314-6.2.474-6.057.459-12.122.925-18.2.948A125.528,125.528,0,0,1,242.9,826.2a2.47,2.47,0,0,1-1.774-.857,9.922,9.922,0,0,1-1.387-2.534c.13-7.556,2.175-15.1,3.872-22.469.7-3.029,6.134,3.763,6.378,4.046,1.507,1.713,2.646,2.5,4.933,2.623,6.248.344,13.246-3.457,18.21-6.837a23.3,23.3,0,0,1,3.373-2.088,9.926,9.926,0,0,1,2.73-.78c-.8,4.5-7.25,9.927-10.577,11.579-6.73,3.342-14.73,1.675-22.24,2.065a3.1,3.1,0,0,0-1.576.382c-.9.6-.956,1.874-.925,2.952.061,1.79.291,3.893,1.843,4.8a5.317,5.317,0,0,0,2.493.52,352.594,352.594,0,0,0,55.455-1.943,30.491,30.491,0,0,0,9.032-2.011,23.378,23.378,0,0,0,5.239-3.373C320.344,814.133,318.37,819.093,316.321,821Z" transform="translate(703 168.133)" fill="#e8eaf2"/>
      <path id="Path_90" data-name="Path 90" d="M300.857,368.6c-.107,2.937,1.9,8.634-3.594,7.044-3.273-.948-4.2-4.826-8.352-3.962-4.191.88-5.109,5.981-6.516,9.33a17.855,17.855,0,0,1-12.94,10.455,7.79,7.79,0,0,1-3.564-.008c-2.677-.765-4.206-3.526-5.3-6.088a47.769,47.769,0,0,1-2.348-6.684,28.22,28.22,0,0,1-.849-4.9v-.008a21.807,21.807,0,0,1-.015-3.388c.5-6.677,4.3-12.764,9.162-17.368s10.776-7.931,16.611-11.212a24.253,24.253,0,0,1,6.126-2.73,20.616,20.616,0,0,1,6.47-.268,22.584,22.584,0,0,1,8.229,1.935,11.59,11.59,0,0,1,2.9,2.034,8.713,8.713,0,0,1,2.508,4.191c1.055,4.313-1.7,8.2-3.931,11.609C303.465,361.615,301,364.827,300.857,368.6Z" transform="translate(703 168.133)" fill="#2f2e41"/>
      <path id="Path_91" data-name="Path 91" d="M306.791,351.986a25.031,25.031,0,0,1-1.682,2.4,28.406,28.406,0,0,1-3.885,4.023,32.336,32.336,0,0,1-2.623,2.057,41.28,41.28,0,0,1-5.3,3.166c-5.369,2.707-11.181,4.405-16.963,6.08q-5.667,1.652-11.342,3.3c-3.954,2.99-17.2,12.8-19.426,11.579-2.623-1.445,11.752-11.622,11.752-11.622l.661.5c-2.1-1.323-3.2-4.39-3.679-7.044-.841-4.749-1.239-9.682-.115-14.378s3.946-9.155,8.244-11.349c1.9-.979,4.214-1.644,5.591-3.151a3.969,3.969,0,0,0,.543-.734,2.411,2.411,0,0,0,.214-.39,5.294,5.294,0,0,1,.6-1.17c.788-.91,2.218-.635,3.411-.49.13.015.252.031.382.038a6.02,6.02,0,0,0,.642.031c4.26.092,8.39-2.279,12.7-2.279,4.726-.008,8.749,2.73,12.91,4.6.841.382,1.637.727,2.386,1.078,3.006,1.4,5.269,2.891,6.508,6.868C309.048,347.42,308.061,349.921,306.791,351.986Z" transform="translate(703 168.133)" fill="#3f3d56"/>
    </g>
  </g>
</svg>
