<svg xmlns="http://www.w3.org/2000/svg" width="176.774" height="373.874" viewBox="0 0 176.774 373.874">
  <g id="Group_55" data-name="Group 55" transform="translate(-706.358 -298.24)">
    <ellipse id="Ellipse_2" data-name="Ellipse 2" cx="87.887" cy="14.101" rx="87.887" ry="14.101" transform="translate(706.858 643.411)" fill="rgba(85,85,85,0.44)" stroke="#b4b4b4" stroke-miterlimit="10" stroke-width="1"/>
    <path id="Path_37" data-name="Path 37" d="M321.994,380.624s1.312,9.838-1.968,13.773-8.526,30.17-8.526,30.17v15.741s20.332-29.514,24.267-41.32a31.72,31.72,0,0,0,0-20.988Z" transform="translate(523.91 32.248)" fill="#ffc1c7"/>
    <path id="Path_38" data-name="Path 38" d="M317.273,308l.277.312a41.6,41.6,0,0,1,7.842,12.978c4.306,11.434,13.561,39.618,10.246,42.46-4.591,3.935-17.709,6.559-18.364,5.9s-13.773-41.32-13.773-41.32Z" transform="translate(526.663 56.337)" fill="#3f3d56"/>
    <path id="Path_39" data-name="Path 39" d="M290.636,729.9s15.741,3.279,16.4,0A26.243,26.243,0,0,1,309,724s14.267.594,10.542,13.1a5.228,5.228,0,0,1-2.29,2.952c-3.4,2.079-11.4,6.983-15.467,9.524-3.056,1.91-7.447.483-10.581-1.042a5.657,5.657,0,0,1-3.056-6.2Z" transform="translate(531.984 -86.82)" fill="#3f3d56"/>
    <path id="Path_40" data-name="Path 40" d="M207.508,732.9s-15.741,3.279-16.4,0a26.24,26.24,0,0,0-1.968-5.9s-14.24.593-10.553,13.066a5.31,5.31,0,0,0,2.332,3.008c3.415,2.09,11.383,6.972,15.436,9.505,3.346,2.092,8.294.181,11.439-1.477a4.563,4.563,0,0,0,2.365-4.929Z" transform="translate(569.857 -87.852)" fill="#3f3d56"/>
    <path id="Path_41" data-name="Path 41" d="M184.856,393.624s-1.312,9.838,1.968,13.773,8.526,19.02,8.526,19.02v15.741s-20.332-18.365-24.267-30.17a31.719,31.719,0,0,1,0-20.988Z" transform="translate(572.833 27.774)" fill="#ffc1c7"/>
    <circle id="Ellipse_13" data-name="Ellipse 13" cx="16.397" cy="16.397" r="16.397" transform="translate(787.203 307.932)" fill="#ffc1c7"/>
    <path id="Path_42" data-name="Path 42" d="M268.547,255.623s-4.591,20.988,0,23.611-27.547,0-27.547,0,7.215-17.709,3.935-23.611S268.547,255.623,268.547,255.623Z" transform="translate(548.171 75.264)" fill="#ffc1c7"/>
    <path id="Path_43" data-name="Path 43" d="M267.824,469.694s5.9,8.526,3.935,34.761-3.935,53.782-3.935,53.782,14.429,82.64,9.838,84.608-19.676,3.935-21.644,1.968-11.15-78.7-11.15-78.7l-8.526-62.964L223.225,575.29s-7.215,70.179-12.462,73.458c-3.751,2.344-11.189.667-15.125-.481a3.424,3.424,0,0,1-2.476-3.436c.481-11.036,2.64-54.591,7.763-81.346,5.9-30.826-5.9-92.478,4.591-93.79S267.824,469.694,267.824,469.694Z" transform="translate(564.634 0.894)" fill="#2f2e41"/>
    <path id="Path_44" data-name="Path 44" d="M219.45,283.441s2.623-11.806,12.462-10.494,16.4.656,18.364,7.215,22.956,11.806,22.956,11.806,5.247.656,4.591,9.182-13.773,40.008-13.773,40.008.656,26.235,3.935,38.041,3.279,26.235-3.935,29.514-52.47,15.085-62.964.656c0,0-5.9-20.988-1.968-29.514s-.656-41.976-.656-41.976L186,310.331s3.935-13.117,15.085-17.053a66.767,66.767,0,0,0,18.364-9.838Z" transform="translate(567.098 68.435)" fill="#3f3d56"/>
    <path id="Path_45" data-name="Path 45" d="M184.956,321l-5.247,5.9s-15.741,38.7-11.15,42.632,17.709,6.559,18.364,5.9,11.806-34.105,11.806-34.105Z" transform="translate(573.388 51.863)" fill="#3f3d56"/>
    <path id="Path_46" data-name="Path 46" d="M270.784,223.474a10.156,10.156,0,0,0-3.279,6.559c-.656,4.591-4.683-2.616-5.621,6.89S245.2,252.988,239.3,248.4s-15.741-33.45-1.968-38.041,27.547-3.935,30.17.656S270.784,223.474,270.784,223.474Z" transform="translate(551.837 91.017)" fill="#2f2e41"/>
    <path id="Path_47" data-name="Path 47" d="M264.375,236.923c.938-9.506,4.965-2.3,5.621-6.89a10.157,10.157,0,0,1,3.279-6.559s-.656-7.87-3.279-12.462c-1.255-2.2-5.067-3.49-10.206-3.741,7.09-.325,12.582,1.014,14.141,3.741,2.623,4.591,3.279,12.462,3.279,12.462a10.156,10.156,0,0,0-3.279,6.559c-.656,4.591-4.683-2.616-5.621,6.89-.8,8.059-12.228,14-19.287,12.821C255.751,248.82,263.716,243.6,264.375,236.923Z" transform="translate(545.41 91.017)" opacity="0.1"/>
  </g>
</svg>
